<svg width="178" height="45" viewBox="0 0 178 45" fill="none" xmlns="http://www.w3.org/2000/svg">
<path d="M46.43 22.1428C42.4952 21.665 38.8217 19.9415 35.9566 17.229C33.0915 14.5165 31.1883 10.9601 30.5304 7.08978C30.4508 6.57922 30.4133 6.0631 30.4181 5.54652C30.4181 4.08042 30.3994 0.972274 30.3963 0.18521C30.3963 0.160628 30.3914 0.136295 30.3818 0.113623C30.3722 0.0909509 30.3581 0.0703978 30.3404 0.0531602C30.3227 0.0359226 30.3018 0.0223454 30.2787 0.0132222C30.2556 0.00409908 30.231 -0.000383946 30.2062 2.5748e-05H23.3475C17.3786 2.5748e-05 11.6542 2.34755 7.43357 6.52617C3.21293 10.7048 0.841797 16.3722 0.841797 22.2817C0.841797 28.1911 3.21293 33.8586 7.43357 38.0372C11.6542 42.2158 17.3786 44.5633 23.3475 44.5633H30.2062C30.231 44.5637 30.2556 44.5592 30.2787 44.5501C30.3018 44.541 30.3227 44.5274 30.3404 44.5102C30.3581 44.4929 30.3722 44.4724 30.3818 44.4497C30.3914 44.427 30.3963 44.4027 30.3963 44.3781C30.3963 43.5911 30.3963 40.4891 30.4119 39.023C30.4091 38.5065 30.4466 37.9905 30.5241 37.4797C31.1618 33.5963 33.0576 30.0233 35.9255 27.2998C38.7935 24.5762 42.4781 22.8496 46.4237 22.3804C46.5547 22.3712 46.5453 22.1428 46.43 22.1428ZM14.2536 22.3712C14.1351 22.3712 14.1257 22.1459 14.2536 22.1459C18.322 21.6582 22.1091 19.8379 25.0126 16.9745C27.9161 14.1111 29.7694 10.3689 30.2779 6.34284V38.1866C29.782 34.1544 27.933 30.4039 25.0274 27.5361C22.1218 24.6684 18.3278 22.8496 14.2536 22.3712Z" fill="#13636F"/>
<path d="M61.8047 16.8158C62.5887 16.034 63.5238 15.4032 64.5586 14.958C65.6311 14.4982 66.7955 14.2649 67.9718 14.2742C69.148 14.2834 70.3082 14.5348 71.3726 15.0113C72.4327 15.4959 73.3924 16.1582 74.2058 16.9664L78.4934 13.5614C77.1618 12.1854 75.5535 11.0777 73.7638 10.3039C71.9063 9.51393 69.8912 9.11568 67.8568 9.13652C65.9203 9.12483 64.0015 9.48784 62.2169 10.2035C60.4959 10.8888 58.9345 11.8914 57.6226 13.1535C56.3187 14.4111 55.268 15.8853 54.5223 17.5031C53.7479 19.1766 53.3556 20.9875 53.3712 22.8161C53.359 24.6489 53.7418 26.4646 54.4959 28.1511C55.9664 31.4491 58.7251 34.0751 62.1905 35.4757C64.0234 36.1969 65.9901 36.5594 67.9734 36.5416C69.9567 36.5238 71.9159 36.1261 73.7341 35.3722C75.5347 34.6052 77.1528 33.498 78.4901 32.1178L74.1629 28.7097C73.3613 29.5445 72.3998 30.2262 71.3298 30.7182C70.2454 31.2135 69.0562 31.4657 67.8535 31.4557C66.7063 31.4619 65.5727 31.2194 64.5388 30.7464C63.5188 30.2803 62.5958 29.6423 61.8145 28.8635C61.0207 28.0691 60.3948 27.1368 59.9709 26.1175C59.5284 25.0659 59.3044 23.9426 59.3112 22.8098C59.3076 20.5768 60.2076 18.4281 61.8244 16.8095L61.8047 16.8158Z" fill="black"/>
<path d="M83.0664 0.000307493C82.2736 -0.000894601 81.5049 0.272916 80.8913 0.775058C80.2778 1.2772 79.8575 1.97658 79.7019 2.75397C79.5464 3.53136 79.6654 4.33863 80.0385 5.03814C80.4116 5.73765 81.0158 6.28609 81.7481 6.58997C82.4803 6.89385 83.2953 6.93435 84.0541 6.70456C84.8129 6.47477 85.4685 5.98893 85.9092 5.32986C86.3498 4.67079 86.5482 3.87929 86.4705 3.09031C86.3928 2.30133 86.0439 1.56372 85.4832 1.00323C85.1698 0.680355 84.7938 0.424864 84.3783 0.252409C83.9627 0.0799528 83.5163 -0.00582945 83.0664 0.000307493Z" fill="black"/>
<path d="M86.487 9.13574H80.7773V34.2583H86.487V9.13574Z" fill="black"/>
<path d="M97.0185 12.9033V9.94978H91.0547V35.4003H97.012V21.4088C97.0049 20.4553 97.202 19.5107 97.5909 18.6344C97.9617 17.7891 98.5085 17.0265 99.1973 16.3941C99.9062 15.751 100.739 15.2492 101.649 14.9173C102.641 14.5512 103.696 14.3689 104.758 14.3801V9.136C103.256 9.12505 101.773 9.46572 100.436 10.1289C99.0972 10.796 97.9295 11.7439 97.0185 12.9033Z" fill="black"/>
<path d="M132.043 17.0807C131.305 15.5331 130.262 14.1365 128.973 12.9674C127.667 11.7883 126.152 10.8429 124.498 10.1761C122.774 9.47749 120.919 9.12358 119.048 9.13606C117.174 9.13196 115.317 9.48423 113.586 10.1725C111.855 10.8608 110.284 11.8714 108.962 13.146C107.667 14.408 106.627 15.8885 105.892 17.5131C105.144 19.1968 104.758 21.0083 104.758 22.8388C104.758 24.6692 105.144 26.4807 105.892 28.1644C106.627 29.789 107.667 31.2695 108.962 32.5315C110.288 33.8104 111.866 34.8236 113.605 35.512C115.343 36.2004 117.206 36.5504 119.087 36.5414C121.525 36.5663 123.926 35.9707 126.046 34.8153C128.122 33.6862 129.89 32.1029 131.207 30.1945L126.073 27.8104C125.291 28.8986 124.27 29.8087 123.081 30.4764C121.9 31.135 120.557 31.4769 119.191 31.4664C118.197 31.4713 117.21 31.2992 116.281 30.9589C115.377 30.6277 114.536 30.1556 113.793 29.5617C113.047 28.9658 112.412 28.2529 111.915 27.4533C111.407 26.64 111.046 25.7504 110.847 24.8218H130.269C131.094 24.8533 131.899 24.5796 132.52 24.0574C132.805 23.8117 133.024 23.5031 133.158 23.1582C133.292 22.8133 133.336 22.4425 133.287 22.0775C133.224 20.349 132.801 18.6501 132.043 17.0807ZM110.951 20.508C111.198 19.6289 111.581 18.7904 112.088 18.0206C112.58 17.2618 113.198 16.5847 113.917 16.0156C114.629 15.4521 115.433 15.0054 116.298 14.6936C117.194 14.3703 118.145 14.2068 119.103 14.2111C120.034 14.2086 120.958 14.3722 121.827 14.6936C122.676 15.0058 123.464 15.4527 124.159 16.0156C124.855 16.5833 125.445 17.2614 125.903 18.0206C126.379 18.7994 126.745 19.636 126.99 20.508H110.951Z" fill="black"/>
<path d="M144.277 4.2832H138.323V11.1975H133.306V15.8607H138.323V30.5429C138.322 31.2932 138.476 32.0362 138.775 32.7295C139.074 33.4228 139.513 34.0528 140.066 34.5835C140.619 35.1141 141.275 35.5351 141.998 35.8223C142.72 36.1096 143.495 36.2574 144.277 36.2574H149.293V31.5973H144.277V15.8607H149.293V11.1975H144.277V4.2832Z" fill="black"/>
<path d="M171.779 10.0473V12.7908C170.601 11.6278 169.188 10.7045 167.627 10.0764C166.065 9.44831 164.387 9.12841 162.693 9.13594C160.897 9.12597 159.12 9.48931 157.486 10.2008C155.871 10.8965 154.421 11.8981 153.223 13.1447C152.001 14.4242 151.029 15.9029 150.354 17.5105C148.94 20.9315 148.94 24.7378 150.354 28.1587C151.029 29.7699 152.002 31.2519 153.226 32.5339C154.424 33.7805 155.874 34.782 157.489 35.4778C159.091 36.1622 160.824 36.5243 162.579 36.5415C164.334 36.5588 166.073 36.2308 167.69 35.578C169.228 34.9512 170.62 34.0365 171.782 32.8878V35.4277H177.842V10.0598L171.779 10.0473ZM171.261 26.0886C170.841 27.1024 170.238 28.0383 169.48 28.854C168.748 29.6432 167.855 30.2824 166.857 30.7331C165.853 31.1865 164.755 31.4198 163.644 31.4158C162.512 31.4199 161.392 31.1868 160.365 30.7331C159.348 30.2834 158.435 29.6446 157.679 28.854C156.908 28.0435 156.296 27.1067 155.872 26.0886C155.432 25.0391 155.21 23.9181 155.217 22.7876C155.209 21.6662 155.431 20.5542 155.872 19.5149C156.296 18.5121 156.908 17.5918 157.679 16.7995C158.44 16.0212 159.352 15.3915 160.365 14.9455C161.392 14.4903 162.511 14.2572 163.644 14.2628C164.755 14.2573 165.853 14.4907 166.857 14.9455C167.851 15.3924 168.742 16.0225 169.48 16.7995C170.237 17.597 170.84 18.5163 171.261 19.5149C171.702 20.5542 171.925 21.6662 171.917 22.7876C171.923 23.9181 171.701 25.0391 171.261 26.0886Z" fill="black"/>
</svg>
